<svg xmlns="http://www.w3.org/2000/svg" version="1.1" xmlns:xlink="http://www.w3.org/1999/xlink" xmlns:svgjs="http://svgjs.dev/svgjs" width="1000" height="1000" viewBox="0 0 1000 1000"><rect width="1000" height="1000" fill="#ffffff"></rect><g transform="matrix(0.7,0,0,0.7,149.57575757575756,387.0781748295804)"><svg viewBox="0 0 396 128" data-background-color="#ffffff" preserveAspectRatio="xMidYMid meet" height="323" width="1000" xmlns="http://www.w3.org/2000/svg" xmlns:xlink="http://www.w3.org/1999/xlink"><g id="tight-bounds" transform="matrix(1,0,0,1,0.2400000000000091,-0.07256248644978314)"><svg viewBox="0 0 395.52 128.14512497289954" height="128.14512497289954" width="395.52"><g><svg viewBox="0 0 664.6646427300996 215.34570617848968" height="128.14512497289954" width="395.52"><g transform="matrix(1,0,0,1,269.14464273009963,55.33105906931129)"><svg viewBox="0 0 395.52 104.6835880398671" height="104.6835880398671" width="395.52"><g id="textblocktransform"><svg viewBox="0 0 395.52 104.6835880398671" height="104.6835880398671" width="395.52" id="textblock"><g><svg viewBox="0 0 395.52 104.6835880398671" height="104.6835880398671" width="395.52"><g transform="matrix(1,0,0,1,0,0)"><svg width="395.52" viewBox="0.9 -33.5 135.44 35.85" height="104.6835880398671" data-palette-color="#1ebbd7"><path d="M38.5-9.45L38.5-9.45Q38.5-7.65 37.7-6.05L37.7-6.05Q36-2.45 31.2-0.05 26.4 2.35 21.2 2.35L21.2 2.35Q13.3 2.35 10.45-3.05L10.45-3.05Q5.3 1.25 3.1 1.25L3.1 1.25Q2.7 1.25 2.4 1.1L2.4 1.1Q0.9 0.3 0.9-2.35 0.9-5 3.1-8.85 5.3-12.7 6.95-13.4L6.95-13.4Q7.7-13.65 8.1-13.65L8.1-13.65Q9.55-13.65 10.3-11.25L10.3-11.25 11.8-6.45Q13.25-8 15.75-11.4L15.75-11.4 20.2-17.4Q28.4-28.05 30.95-29.05L30.95-29.05Q31.85-29.4 32.8-29.4 33.75-29.4 34.38-29 35-28.6 35-28L35-28Q35-27.1 33.55-26.95L33.55-26.95Q32.05-26.1 27.83-21.98 23.6-17.85 22.8-16.75L22.8-16.75Q17.2-8.95 12.45-4.75L12.45-4.75Q15.5 1.3 21.6 1.3L21.6 1.3Q25.3 1.3 28.95-1.03 32.6-3.35 34.4-6.75L34.4-6.75Q35.2-8.2 35.2-10 35.2-11.8 33.77-13.43 32.35-15.05 30.2-15.8L30.2-15.8Q29.2-15.95 27-16.23 24.8-16.5 24.8-17.15L24.8-17.15Q24.8-17.4 25-17.6L25-17.6Q25.6-18.3 26.55-18.3L26.55-18.3Q27.1-18.3 27.63-18.1 28.15-17.9 28.45-17.8 28.75-17.7 29.15-17.55L29.15-17.55Q30.25-17.45 31.05-17.45L31.05-17.45Q34.35-17.45 37.05-18.5L37.05-18.5Q40.5-19.85 41.45-22.55L41.45-22.55Q42.05-24.3 42.05-25.7L42.05-25.7Q42.05-29.15 38.7-30.85L38.7-30.85Q35.8-32.35 30.75-32.35L30.75-32.35Q22.8-32.35 16.5-29.35L16.5-29.35Q13.3-27.85 10.43-24.9 7.55-21.95 7.55-19.85L7.55-19.85Q7.55-18.4 8.3-17.45L8.3-17.45Q8.6-17.05 9.35-16.45L9.35-16.45Q9.6-16.3 9.05-16.3L9.05-16.3Q5.95-17 5.95-20.45 5.95-23.9 9.45-26.95L9.45-26.95Q12.05-29.2 15.3-30.6L15.3-30.6Q22.05-33.5 30.65-33.5L30.65-33.5Q36.8-33.5 40.45-31.7L40.45-31.7Q44.7-29.7 44.7-25.65L44.7-25.65Q44.7-24.05 44.05-22.4L44.05-22.4Q43-19.4 38.6-17.85L38.6-17.85Q35.3-16.7 31.5-16.65L31.5-16.65Q34.45-16.5 36.48-14.48 38.5-12.45 38.5-9.45ZM6.55-11.3L6.55-11.3Q6.5-11.3 6.3-11.2L6.3-11.2Q2.6-5.85 2.6-2.6L2.6-2.6Q2.6-1.25 3.25-0.15L3.25-0.15Q3.4 0.1 3.75 0.1L3.75 0.1Q5.35 0.1 9.9-4.45L9.9-4.45 9.75-4.65Q7.75-11.3 6.55-11.3ZM51.15 0.25L51.15 0.25Q47.4 0.25 47.4-3.9L47.4-3.9Q47.4-6 48.5-8.5 49.6-11 50.9-12.7L50.9-12.7Q50.65-12.65 50.25-12.65L50.25-12.65Q49.05-12.65 48.25-14.35L48.25-14.35 44.55-9.55Q41.45-5.7 40.95-5.7L40.95-5.7Q40.7-5.7 40.7-5.9L40.7-5.9Q40.7-6.4 41.55-7.35L41.55-7.35Q45.9-12.4 47.7-15.9L47.7-15.9Q48.85-20.25 50.6-20.25L50.6-20.25Q51.75-20.25 51.75-19.25 51.75-18.25 50.5-16.7L50.5-16.7 49.3-15.1Q49.3-14.05 50.85-14.05L50.85-14.05Q51.75-14.05 52.85-14.7L52.85-14.7 54.15-15.5Q54.25-15.55 54.65-15.55 55.05-15.55 55.5-15.05 55.95-14.55 55.8-14.15L55.8-14.15 52.35-9.8Q49.15-5.7 49.15-3.33 49.15-0.95 51.35-0.95L51.35-0.95Q53.65-0.95 57-3.4L57-3.4Q59-4.85 60.65-6.65L60.65-6.65Q62.2-8.45 62.35-8.45L62.35-8.45Q62.7-8.45 62.7-8.08 62.7-7.7 62.25-7.2L62.25-7.2 60.65-5.4Q59.3-4 57.65-2.7L57.65-2.7Q53.7 0.25 51.15 0.25ZM73.7-10.6L73.7-10.6Q73.7-8.85 70.35-4.75L70.35-4.75Q66.4 0.1 63.6 0.1L63.6 0.1 62.8 0.1Q61.5 0.1 60.75-1.25L60.75-1.25Q60.15-2.2 60.15-3.35L60.15-3.35Q60.15-6.35 64.52-11.78 68.9-17.2 71.6-17.2L71.6-17.2Q74.15-17.2 74.15-14.5L74.15-14.5Q74.15-13.8 73.9-12.7L73.9-12.7Q73.95-12.55 74.85-12.55 75.75-12.55 77.6-13.5L77.6-13.5Q77.55-12.65 73.65-11.05L73.65-11.05Q73.7-10.85 73.7-10.6ZM70.45-13.2L70.45-13.2Q68.75-13.2 65.62-9.2 62.5-5.2 62.5-3.3 62.5-1.4 63.7-1.4L63.7-1.4Q65.85-1.4 69.15-5.3 72.45-9.2 72.45-10.9L72.45-10.9Q71.65-11.35 70.45-13.2ZM86.54-0.2L86.54-0.2Q83.59-0.2 83.59-3.65L83.59-3.65Q83.59-5.6 84.97-7.98 86.34-10.35 88.34-13.55L88.34-13.55Q81.94-10.35 76.74-4.1L76.74-4.1Q73.84 0.25 73.34 0.25L73.34 0.25Q71.89 0.25 71.89-0.6L71.89-0.6Q71.89-1.05 72.49-2.2L72.49-2.2Q77.34-10.85 79.84-14.85L79.84-14.85Q85.79-24.4 88.24-25.2L88.24-25.2Q88.34-25.25 88.44-25.25L88.44-25.25Q89.09-25.25 89.34-24.2L89.34-24.2Q89.19-23.15 84.14-16.6L84.14-16.6Q78.89-9.95 78.19-7.9L78.19-7.9Q80.04-9.25 84.64-12.45L84.64-12.45Q89.59-15.9 91.19-15.9 92.79-15.9 92.79-14.65L92.79-14.65Q92.79-14.45 92.77-14.38 92.74-14.3 89.29-9.65 85.84-5 85.84-2.8L85.84-2.8Q85.84-1.65 86.69-1.65L86.69-1.65Q89.39-1.75 94.79-8.15L94.79-8.15Q95.24-8.6 95.47-8.6 95.69-8.6 95.69-8.3L95.69-8.3Q95.69-7.3 90.74-2.9L90.74-2.9Q87.64-0.2 86.54-0.2ZM110.09-14.95L110.09-14.95 110.79-15.1Q111.34-15.1 111.84-14.65 112.34-14.2 112.34-13.95 112.34-13.7 109.24-9.13 106.14-4.55 106.14-2.75L106.14-2.75Q106.14-2.6 106.19-2.45L106.19-2.45Q106.44-1.3 107.29-1.3L107.29-1.3Q109.89-1.3 116.79-9.9L116.79-9.9Q116.94-10.1 117.14-10.1 117.34-10.1 117.34-9.73 117.34-9.35 116.89-8.75L116.89-8.75Q110.49-0.2 107.14-0.2L107.14-0.2Q106.69-0.2 106.29-0.35L106.29-0.35Q104.09-1.2 104.09-3.65L104.09-3.65Q104.09-4.5 104.29-5.35L104.29-5.35 101.19-2.35Q98.24 0.25 96.92 0.25 95.59 0.25 94.39-0.6L94.39-0.6Q93.04-1.6 93.04-3.25L93.04-3.25Q93.04-6.9 98.14-11.98 103.24-17.05 107.49-17.05L107.49-17.05Q109.14-17.05 109.69-15.9L109.69-15.9Q109.84-15.5 109.94-15.23 110.04-14.95 110.09-14.95ZM95.14-2.65L95.14-2.65Q95.14-0.85 96.39-0.85L96.39-0.85Q99.29-0.85 104.29-7.2L104.29-7.2 109.59-14.5Q109.19-15.2 108.29-15.2L108.29-15.2Q105.24-15.2 100.19-10.48 95.14-5.75 95.14-2.65ZM122.14-15.8L122.14-15.8Q123.49-15.8 123.49-14.75L123.49-14.75Q123.49-14.45 123.34-14.15L123.34-14.15Q118.84-7.9 117.94-4.7L117.94-4.7Q129.59-16.35 132.09-16.35L132.09-16.35Q132.34-16.4 132.54-16.4L132.54-16.4Q133.94-16.4 133.94-15.15L133.94-15.15Q133.94-14.9 133.84-14.65 133.74-14.4 131.84-11.95L131.84-11.95Q129.64-9.35 128.11-6.95 126.59-4.55 126.59-2.95 126.59-1.35 127.29-1.35L127.29-1.35Q129.49-1.35 134.94-7.4L134.94-7.4Q135.04-7.5 135.29-7.85L135.29-7.85Q136.04-8.75 136.19-8.75 136.34-8.75 136.34-8.25 136.34-7.75 135.64-6.95L135.64-6.95Q129.44 0.1 126.84 0.1L126.84 0.1Q124.39 0.1 124.39-2.6 124.39-5.3 126.39-8.8L126.39-8.8 129.59-14Q126.19-11.5 123.54-8.53 120.89-5.55 118.71-2.75 116.54 0.05 116.19 0.05L116.19 0.05Q115.44 0.05 115.01-0.58 114.59-1.2 114.59-2.13 114.59-3.05 115.24-4.6 115.89-6.15 116.89-8.35L116.89-8.35 113.89-5.2Q112.79-4.1 112.51-4.1 112.24-4.1 112.24-4.42 112.24-4.75 112.64-5.15L112.64-5.15Q114.49-7 115.84-8.7L115.84-8.7Q117.14-10.4 121.19-15.2L121.19-15.2Q121.64-15.8 122.14-15.8Z" opacity="1" transform="matrix(1,0,0,1,0,0)" fill="#1ebbd7" class="wordmark-text-0" data-fill-palette-color="primary" id="text-0"></path></svg></g></svg></g></svg></g></svg></g><g><svg viewBox="0 0 244.43135999999998 215.34570617848968" height="215.34570617848968" width="244.43135999999998"><g><svg xmlns="http://www.w3.org/2000/svg" xmlns:xlink="http://www.w3.org/1999/xlink" version="1.1" x="0" y="0" viewBox="6.3 11.5 87.4 77" style="enable-background:new 0 0 100 100;" xml:space="preserve" height="215.34570617848968" width="244.43135999999998" class="icon-icon-0" data-fill-palette-color="accent" id="icon-0"><path d="M72.3 12.3L72.3 12.3 72.3 12.3l-0.4-0.8H28.2L6.3 50l21.8 38.5h43.7L93.7 50 72.3 12.3zM33.3 25.3L9.9 47.7l18.6-32.8L33.3 25.3zM70.7 14.8l6.4 35.7L36.9 25.8 70.7 14.8zM35.5 27.3l41 25.2-41 23.3V27.3zM77 54.5l-7.2 30.8-32.6-8.1L77 54.5zM33.5 75L9.9 50.5l23.6-22.7V75zM33.2 77.6l-4.6 7.7L11.5 55.1 33.2 77.6zM35 78.6l31.4 7.9H30.2L35 78.6zM79.3 53.3l11.6-2.5L72.1 84 79.3 53.3zM90.7 48.9l-11.4 2.5-5.9-33.1L90.7 48.9zM35 24.3l-5-10.8h38.2L35 24.3z" fill="#1ebbd7" data-fill-palette-color="accent"></path></svg></g></svg></g></svg></g><defs></defs></svg><rect width="395.52" height="128.14512497289954" fill="none" stroke="none" visibility="hidden"></rect></g></svg></g></svg>